<svg width="16" height="16" viewBox="0 0 16 16" fill="none" xmlns="http://www.w3.org/2000/svg">
<path d="M15.7607 9.93463C14.6918 14.2226 10.3474 16.8293 6.0655 15.7603C1.77737 14.6914 -0.829259 10.3472 0.239679 6.06537C1.30855 1.77737 5.64668 -0.829259 9.93481 0.23968C14.2167 1.30231 16.8296 5.64656 15.7607 9.93463Z" fill="url(#paint0_linear_17_21)"/>
<path d="M11.8376 7.01604C11.995 5.9673 11.1827 5.39975 10.0619 5.02344L10.4271 3.5984L9.54555 3.38248L9.19293 4.77051C8.95995 4.71499 8.72067 4.65947 8.48139 4.61012L8.83401 3.21592L7.95245 3L7.59353 4.41888C7.39833 4.37569 7.20942 4.33251 7.02681 4.28933V4.28316L5.80523 3.98705L5.57224 4.9124C5.57224 4.9124 6.22711 5.06046 6.21452 5.06663C6.57344 5.15299 6.63641 5.38742 6.62382 5.57249L6.20822 7.19494C6.23341 7.20111 6.2649 7.20728 6.30268 7.22579C6.27119 7.21962 6.23971 7.21345 6.20822 7.20111L5.62891 9.47131C5.58484 9.57619 5.47149 9.73658 5.22592 9.67489C5.23221 9.68723 4.58364 9.52067 4.58364 9.52067L4.14286 10.5139L5.29518 10.7977C5.50927 10.8532 5.71707 10.9025 5.92487 10.9581L5.55965 12.3954L6.44121 12.6114L6.80642 11.1863C7.0457 11.248 7.28499 11.3097 7.51167 11.3652L7.15275 12.7841L8.03431 13L8.39953 11.5626C9.91077 11.8402 11.0442 11.7292 11.5165 10.3905C11.9006 9.31709 11.4976 8.69402 10.7042 8.28686C11.2898 8.15731 11.7243 7.781 11.8376 7.01604ZM9.81632 9.7921C9.54555 10.8655 7.69428 10.2856 7.09608 10.1376L7.58094 8.23134C8.17914 8.3794 10.106 8.66934 9.81632 9.7921ZM10.0934 6.99753C9.84151 7.97841 8.30507 7.47872 7.80762 7.35534L8.2484 5.62801C8.74585 5.75139 10.3516 5.97964 10.0934 6.99753Z" fill="white"/>
<defs>
<linearGradient id="paint0_linear_17_21" x1="7.99568" y1="-0.00384" x2="7.99568" y2="15.9984" gradientUnits="userSpaceOnUse">
<stop stop-color="#F9AA4B"/>
<stop offset="1" stop-color="#F7931A"/>
</linearGradient>
</defs>
</svg>
