<svg width="16" height="13" viewBox="0 0 16 13" fill="none" xmlns="http://www.w3.org/2000/svg">
<path d="M15.1989 0.994311L0.798498 0.994312C0.6527 0.994769 0.509789 1.03498 0.385145 1.11062C0.260501 1.18625 0.158846 1.29445 0.0911213 1.42357C0.0233963 1.55268 -0.00783391 1.69782 0.000792823 1.84336C0.00941956 1.98891 0.0575759 2.12934 0.140079 2.24955L7.34028 12.6498C7.63869 13.0811 8.35711 13.0811 8.65632 12.6498L15.8565 2.24955C15.9399 2.12959 15.9887 1.98908 15.9978 1.8433C16.0069 1.69751 15.9759 1.55202 15.9081 1.42264C15.8403 1.29325 15.7384 1.18491 15.6133 1.1094C15.4883 1.03388 15.345 0.994081 15.1989 0.994311Z" fill="#FF4848"/>
</svg>
