<svg width="53" height="37" viewBox="0 0 53 37" fill="none" xmlns="http://www.w3.org/2000/svg">
<path d="M53.0002 24V29.1429C53.0002 29.375 52.9154 29.5759 52.7457 29.7455C52.5761 29.9152 52.3752 30 52.1431 30L11.2054 30.0893V35.2321C11.2054 35.4643 11.1205 35.6652 10.9509 35.8348C10.7813 36.0045 10.5804 36.0893 10.3482 36.0893C10.1339 36.0893 9.91964 36 9.70536 35.8214L1.16071 27.25C1 27.0893 0.919643 26.8929 0.919643 26.6607C0.919643 26.4107 1 26.2054 1.16071 26.0446L9.73214 17.4732C9.89286 17.3125 10.0982 17.2321 10.3482 17.2321C10.5804 17.2321 10.7813 17.317 10.9509 17.4866C11.1205 17.6562 11.2054 17.8571 11.2054 18.0893V23.2321L52.1431 23.1429C52.3752 23.1429 52.5761 23.2277 52.7457 23.3973C52.9154 23.567 53.0002 23.7679 53.0002 24ZM53.0002 9.42857C53.0002 9.67857 52.9198 9.88393 52.7591 10.0446L44.1877 18.6161C44.027 18.7768 43.8216 18.8571 43.5716 18.8571C43.3395 18.8571 43.1386 18.7723 42.9689 18.6027C42.7993 18.433 42.7145 18.2321 42.7145 18V12.8571L1.85732 13.0893C1.62517 13.0893 1.42428 13.0045 1.25464 12.8348C1.08499 12.6652 1.00017 12.4643 1.00017 12.2321V7.08929C1.00017 6.85714 1.08499 6.65625 1.25464 6.48661C1.42428 6.31696 1.62517 6.23214 1.85732 6.23214L42.7145 6V0.857143C42.7145 0.607143 42.7948 0.401786 42.9556 0.241071C43.1163 0.0803571 43.3216 0 43.5716 0C43.7859 0 44.0002 0.0892857 44.2145 0.267857L52.7591 8.8125C52.9198 8.97321 53.0002 9.17857 53.0002 9.42857Z" fill="black"/>
</svg>
