<svg width="26" height="24" viewBox="0 0 26 24" fill="none" xmlns="http://www.w3.org/2000/svg">
<path d="M-9.3868e-08 9.29032L13 24L26 9.29032L22.8485 -8.56974e-07L3.15151 8.6499e-07L-9.3868e-08 9.29032Z" fill="#2CB59B"/>
<path fill-rule="evenodd" clip-rule="evenodd" d="M14.622 5.608V7.974C19.015 8.177 22.316 9.048 22.316 10.091C22.316 11.134 19.015 12.005 14.622 12.207V19.791H10.709V12.209C6.30899 12.006 3 11.135 3 10.091C3 9.047 6.30899 8.175 10.709 7.973V5.608H5.295V2H20.036V5.608H14.622ZM14.622 11.562V11.564C18.502 11.392 21.397 10.717 21.397 9.907C21.397 9.099 18.502 8.422 14.622 8.249V10.892C14.509 10.902 13.904 10.952 12.697 10.952C11.691 10.952 10.963 10.909 10.709 10.891V8.247C6.821 8.421 3.91899 9.098 3.91899 9.907C3.91899 10.717 6.821 11.394 10.709 11.565V11.562C10.959 11.574 11.67 11.604 12.68 11.604C13.945 11.604 14.512 11.57 14.622 11.562Z" fill="white"/>
</svg>
